<svg width="16" height="16" viewBox="0 0 16 16" fill="none" xmlns="http://www.w3.org/2000/svg">
<path d="M14.7502 14.7502L11.4929 11.4929M11.4929 11.4929C12.0501 10.9357 12.492 10.2743 12.7935 9.54635C13.0951 8.81832 13.2503 8.0381 13.2503 7.25015C13.2503 6.4622 13.0951 5.68197 12.7935 4.954C12.492 4.22602 12.0501 3.56457 11.4929 3.00741C10.9357 2.45024 10.2743 2.00827 9.54635 1.70673C8.81832 1.4052 8.0381 1.25 7.25015 1.25C6.4622 1.25 5.68197 1.4052 4.954 1.70673C4.22602 2.00827 3.56457 2.45024 3.00741 3.00741C1.88216 4.13266 1.25 5.65882 1.25 7.25015C1.25 8.8415 1.88216 10.3677 3.00741 11.4929C4.13266 12.6181 5.65882 13.2503 7.25015 13.2503C8.8415 13.2503 10.3677 12.6181 11.4929 11.4929Z" stroke="white" stroke-opacity="0.7" stroke-width="1.5" stroke-linecap="round" stroke-linejoin="round"/>
</svg>
